<?xml version="1.0" encoding="UTF-8" ?>
<!DOCTYPE svg PUBLIC "-//W3C//DTD SVG 1.1//EN" "http://www.w3.org/Graphics/SVG/1.1/DTD/svg11.dtd">
<svg width="1280pt" height="129pt" viewBox="0 0 1280 129" version="1.1" xmlns="http://www.w3.org/2000/svg">
<g id="#f2f2f2ff">
<path fill="#f2f2f2" opacity="1.00" d=" M 284.44 0.00 L 329.55 0.00 C 333.60 0.98 337.82 0.16 341.94 0.63 C 350.59 1.47 359.32 0.38 367.93 1.77 C 374.61 2.24 381.36 1.68 388.00 2.92 C 393.70 2.69 399.31 3.74 404.98 4.01 C 482.43 10.20 559.49 23.60 634.77 43.30 C 713.97 64.58 795.12 79.13 876.77 85.43 C 881.31 86.44 886.01 85.63 890.58 86.49 C 895.88 87.47 901.31 86.61 906.63 87.42 C 913.26 88.51 920.00 87.60 926.67 88.37 C 936.08 89.41 945.56 88.83 955.01 89.03 C 974.36 89.37 993.72 88.95 1013.07 88.95 C 1020.72 88.08 1028.42 87.96 1036.11 87.92 C 1041.38 87.25 1046.67 86.88 1052.00 86.92 C 1056.90 86.00 1061.89 86.12 1066.85 85.79 C 1071.68 84.65 1076.69 85.41 1081.54 84.42 C 1116.07 81.15 1150.53 76.43 1184.62 69.68 C 1216.89 63.39 1248.89 55.48 1280.00 44.80 L 1280.00 129.00 L 0.00 129.00 L 0.00 44.29 C 4.28 43.58 8.22 41.56 12.40 40.44 C 72.32 21.64 134.65 11.19 196.96 5.03 C 202.04 5.01 206.99 3.59 212.10 3.95 C 217.35 3.03 222.67 3.06 227.97 2.75 C 234.38 1.46 240.95 2.52 247.38 1.45 C 255.25 0.52 263.19 1.44 271.07 0.61 C 275.51 0.14 280.05 0.94 284.44 0.00 Z" />
</g>
</svg>
